<svg xmlns="http://www.w3.org/2000/svg" viewBox="-320 -120 1240 860" fill="none" aria-hidden="true" focusable="false">
        <defs>
          <clipPath id="c-scan-top" clipPathUnits="userSpaceOnUse"><rect class="scan-top" x="-400" y="-200" width="1400" height="120"/></clipPath>
          <clipPath id="c-scan-bot" clipPathUnits="userSpaceOnUse"><rect class="scan-bot" x="-400" y="-80" width="1400" height="1200"/></clipPath>
          <linearGradient id="g-scan" x1="0" y1="0" x2="0" y2="1">
            <stop offset="0" stop-color="#C9A24C" stop-opacity="0"/>
            <stop offset="1" stop-color="#C9A24C" stop-opacity=".35"/>
          </linearGradient>
          <radialGradient id="g-pulp">
            <stop offset="0" stop-color="#E3C278" stop-opacity=".95"/>
            <stop offset=".55" stop-color="#C9A24C" stop-opacity=".45"/>
            <stop offset="1" stop-color="#C9A24C" stop-opacity="0"/>
          </radialGradient>
          <filter id="f-glow" x="-50%" y="-50%" width="200%" height="200%">
            <feGaussianBlur stdDeviation="4" result="b"/>
            <feMerge><feMergeNode in="b"/><feMergeNode in="SourceGraphic"/></feMerge>
          </filter>
        </defs>
        <g class="tooth">
          <g clip-path="url(#c-scan-top)">
          <image class="t-cutaway" href="assets/hero/tooth-cutaway.webp" x="71.8" y="-47.7" width="504.7" height="758.2"/>
          <g class="t-anatomy" transform="translate(-880 -120) scale(1.2249)">
            <ellipse class="t-pulp-glow" cx="935" cy="398" rx="78" ry="52" fill="url(#g-pulp)" style="mix-blend-mode: screen"/>
            <g class="t-canals" stroke="#C9A24C" stroke-width="4" stroke-linecap="round" filter="url(#f-glow)">
              <path d="M900 440C915 520 940 600 962 660"/>
              <path d="M985 440C1010 520 1050 600 1075 668"/>
              <path d="M1060 420C1090 480 1130 550 1158 612"/>
            </g>
          </g>
          </g>
          <g clip-path="url(#c-scan-bot)">
            <image class="t-photo" href="assets/hero/tooth-full.webp" x="35" y="5" width="542" height="699"/>
          </g>
          <g class="scan" opacity="0">
            <rect x="-20" y="-40" width="660" height="40" fill="url(#g-scan)"/>
            <line x1="-20" y1="0" x2="640" y2="0" stroke="#E3C278" stroke-width="2" filter="url(#f-glow)"/>
          </g>
          <path class="t-outline" d="M344.4 7.7C342.6 7.9 341.1 8.1 339.1 8.4C337 8.7 334.5 9.2 332.2 9.6C329.9 10.1 327.6 10.6 325.4 11.2C323.1 11.8 320.9 12.5 318.7 13.2C316.5 13.9 314.3 14.7 312.1 15.6C310 16.4 307.8 17.4 305.7 18.4C303.6 19.3 301.5 20.4 299.5 21.5C297.4 22.6 295.4 23.7 293.3 24.8C291.3 26 289.3 27.2 287.3 28.4C285.4 29.7 283.4 30.9 281.5 32.2C279.5 33.5 277.6 34.9 275.8 36.3C273.9 37.7 272.1 39.1 270.3 40.6C268.4 42 266.6 43.5 264.9 45.1C263.1 46.6 261.4 48.1 259.6 49.7C257.9 51.3 256.2 52.8 254.5 54.4C252.8 56 251.1 57.7 249.4 59.3C247.8 60.9 246.1 62.5 244.4 64.1C242.7 65.8 241 67.4 239.4 69C237.7 70.6 236 72.3 234.3 73.8C232.6 75.4 230.9 77 229 78.4C227.2 79.8 225.4 81.3 223.4 82.4C221.4 83.5 219.3 84.4 217.1 85C215 85.7 212.7 86 210.4 86.3C208.2 86.6 205.9 86.7 203.6 86.9C201.3 87.1 198.9 87.2 196.6 87.4C194.3 87.7 192 88 189.7 88.2C187.4 88.4 185 88.6 182.7 88.8C180.4 89 178.1 89.2 175.7 89.3C173.4 89.5 171.1 89.7 168.7 89.8C166.4 90 164.1 90.2 161.8 90.3C159.4 90.5 157.1 90.7 154.8 90.9C152.5 91.1 150.1 91.3 147.8 91.5C145.5 91.8 143.2 92 140.9 92.3C138.5 92.6 136.2 92.9 133.9 93.3C131.6 93.7 129.3 94.1 127.1 94.6C124.8 95.1 122.5 95.6 120.3 96.2C118 96.8 115.8 97.5 113.6 98.2C111.4 98.9 109.2 99.7 107 100.5C104.8 101.3 102.7 102.2 100.5 103.2C98.4 104.1 96.3 105 94.2 106.1C92.1 107.1 90.1 108.2 88 109.4C86 110.6 84.1 111.8 82.1 113.1C80.2 114.4 78.4 115.8 76.5 117.3C74.7 118.8 73 120.3 71.3 121.9C69.6 123.5 67.9 125.1 66.3 126.8C64.6 128.4 63 130.1 61.5 131.9C60 133.6 58.5 135.4 57.1 137.3C55.7 139.1 54.4 141 53.1 143C51.9 145 50.7 147 49.6 149.1C48.5 151.1 47.5 153.2 46.6 155.3C45.7 157.5 44.8 159.6 44.1 161.8C43.3 164 42.6 166.3 42 168.5C41.4 170.8 40.8 173 40.4 175.3C39.9 177.6 39.5 179.9 39.1 182.2C38.8 184.5 38.5 186.8 38.2 189.1C38 191.4 37.8 193.8 37.7 196.1C37.5 198.4 37.4 200.8 37.3 203.1C37.2 205.4 37.2 207.7 37.2 210.1C37.3 212.4 37.3 214.7 37.5 217.1C37.6 219.4 37.9 221.7 38.1 224C38.3 226.3 38.6 228.7 39 231C39.3 233.3 39.7 235.6 40.1 237.9C40.5 240.2 41 242.5 41.4 244.7C41.9 247 42.4 249.3 43 251.6C43.5 253.8 44.1 256.1 44.7 258.3C45.3 260.6 45.9 262.8 46.6 265.1C47.3 267.3 47.9 269.5 48.6 271.8C49.3 274 50.1 276.2 50.8 278.4C51.6 280.6 52.3 282.8 53.2 285C54 287.2 54.9 289.3 55.8 291.5C56.6 293.6 57.5 295.8 58.4 297.9C59.3 300.1 60.2 302.2 61.2 304.3C62.1 306.5 63 308.6 64 310.7C65 312.8 66 314.9 67 317C68.1 319.1 69.2 321.2 70.3 323.2C71.4 325.3 72.5 327.3 73.6 329.4C74.7 331.4 75.9 333.4 77.1 335.4C78.3 337.4 79.5 339.4 80.7 341.4C82 343.4 83.3 345.3 84.6 347.2C85.9 349.2 87.2 351.1 88.5 353C89.9 354.9 91.3 356.8 92.6 358.7C94 360.6 95.4 362.4 96.9 364.3C98.3 366.1 99.8 367.9 101.2 369.7C102.7 371.6 104.2 373.4 105.7 375.1C107.2 376.9 108.7 378.7 110.2 380.5C111.7 382.3 113.3 384 114.8 385.8C116.2 387.6 117.7 389.4 119.2 391.2C120.7 393 122.1 394.9 123.5 396.7C124.8 398.6 126.2 400.5 127.5 402.5C128.8 404.4 130 406.4 131.2 408.4C132.4 410.4 133.6 412.4 134.8 414.4C135.9 416.5 136.9 418.5 138 420.6C139 422.7 140.1 424.8 141 426.9C142 429 142.9 431.2 143.8 433.3C144.7 435.5 145.6 437.6 146.5 439.7C147.4 441.9 148.2 444.1 149 446.3C149.8 448.4 150.6 450.6 151.4 452.8C152.2 455 153 457.2 153.8 459.4C154.6 461.6 155.4 463.8 156.2 465.9C157 468.1 157.9 470.3 158.8 472.4C159.6 474.6 160.5 476.7 161.4 478.9C162.3 481 163.3 483.2 164.2 485.3C165.1 487.5 165.9 489.6 166.9 491.8C167.8 493.9 168.8 496 169.7 498.1C170.7 500.2 171.7 502.4 172.7 504.4C173.7 506.5 174.8 508.6 175.9 510.7C176.9 512.8 178 514.9 179.1 516.9C180.2 519 181.3 521 182.4 523.1C183.5 525.1 184.7 527.1 185.9 529.1C187 531.2 188.2 533.2 189.4 535.2C190.7 537.2 191.9 539.1 193.2 541.1C194.4 543 195.7 545 197.1 546.9C198.4 548.8 199.7 550.7 201.1 552.6C202.4 554.6 203.8 556.4 205.1 558.3C206.5 560.2 207.9 562.1 209.3 564C210.7 565.8 212.1 567.6 213.6 569.5C215.1 571.3 216.5 573.1 218 574.9C219.5 576.7 221 578.5 222.6 580.2C224.1 582 225.7 583.7 227.2 585.4C228.8 587.2 230.4 588.9 232 590.6C233.6 592.3 235.2 594 236.8 595.7C238.4 597.3 240 599 241.7 600.7C243.3 602.3 245 603.9 246.7 605.5C248.4 607.1 250.1 608.7 251.8 610.3C253.5 611.9 255.3 613.5 257 615C258.8 616.5 260.6 618.1 262.3 619.5C264.1 621 266 622.5 267.8 623.9C269.6 625.4 271.5 626.8 273.3 628.2C275.2 629.6 277.1 631 279 632.3C280.9 633.7 282.8 635 284.8 636.3C286.7 637.6 288.7 638.9 290.6 640.1C292.6 641.3 294.7 642.5 296.7 643.6C298.7 644.7 300.8 645.9 302.9 646.7C305 647.6 307.3 648.5 309.5 648.7C311.6 649 313.9 648.9 315.6 648.3C317.4 647.6 318.6 645.9 320 644.6C321.5 643.3 322.7 641.6 324.2 640.5C325.7 639.3 327.2 638 329 637.6C330.9 637.2 333.3 637.6 335.3 638.1C337.4 638.6 339.4 639.5 341.2 640.7C343 641.8 344.7 643.5 346.4 645C348 646.6 349.6 648.4 351.2 650.1C352.8 651.7 354.5 653.4 356.1 655.1C357.7 656.7 359.4 658.4 361.1 660C362.8 661.6 364.4 663.2 366.2 664.8C367.9 666.4 369.6 668 371.3 669.5C373.1 671.1 374.8 672.6 376.6 674.1C378.4 675.6 380.2 677.1 382 678.5C383.9 680 385.7 681.4 387.6 682.8C389.5 684.2 391.4 685.5 393.3 686.8C395.2 688.1 397.2 689.4 399.2 690.6C401.2 691.8 403.2 692.9 405.3 694C407.4 695 409.5 696 411.6 696.9C413.8 697.8 415.9 698.7 418.1 699.4C420.4 700.1 422.6 700.7 424.9 701C427.1 701.3 429.5 701.5 431.5 701C433.6 700.6 435.4 699.6 437.2 698.5C438.9 697.3 440.5 695.7 442 694C443.5 692.3 444.5 690.1 445.9 688.3C447.2 686.5 448.6 684.7 450.2 683.3C451.8 681.9 453.4 680.6 455.3 679.8C457.2 678.9 459.4 678.7 461.6 678.2C463.7 677.6 466.2 677.5 468.1 676.7C470.1 675.9 472 674.9 473.6 673.5C475.1 672.1 476.3 670.2 477.3 668.2C478.3 666.2 479 663.9 479.5 661.7C480 659.4 480.3 657.1 480.4 654.8C480.5 652.5 480.4 650.2 480.2 647.9C480 645.6 479.5 643.3 479 641C478.5 638.8 477.8 636.5 477.1 634.3C476.4 632.1 475.6 629.9 474.8 627.8C473.9 625.6 473 623.4 472.1 621.3C471.3 619.1 470.3 617 469.4 614.9C468.5 612.7 467.6 610.6 466.7 608.4C465.8 606.3 464.9 604.1 464.1 601.9C463.2 599.8 462.4 597.6 461.6 595.4C460.8 593.2 460 591 459.2 588.8C458.4 586.6 457.7 584.5 456.9 582.2C456.2 580 455.4 577.8 454.7 575.6C454 573.4 453.2 571.2 452.5 569C451.8 566.7 451.1 564.5 450.4 562.3C449.7 560.1 449 557.8 448.4 555.6C447.7 553.4 447.1 551.1 446.5 548.9C445.8 546.6 445.2 544.4 444.6 542.1C444 539.9 443.4 537.6 442.9 535.3C442.3 533.1 441.8 530.8 441.2 528.5C440.7 526.3 440.2 524 439.7 521.7C439.2 519.4 438.8 517.1 438.3 514.9C437.8 512.6 437.3 510.3 436.9 508C436.5 505.7 436 503.4 435.6 501.1C435.2 498.8 434.8 496.5 434.4 494.2C434 491.9 433.7 489.6 433.4 487.3C433.1 485 432.9 482.6 432.8 480.3C432.8 478.1 432.6 475.5 433.1 473.8C433.5 472.1 434.5 470.7 435.7 470.2C436.8 469.6 438.3 469.8 439.9 470.5C441.5 471.2 443.6 473 445.2 474.5C446.9 476 448.5 477.8 450 479.6C451.6 481.3 453.1 483.1 454.6 484.9C456.1 486.7 457.5 488.5 458.9 490.3C460.4 492.2 461.8 494.1 463.2 495.9C464.6 497.8 465.9 499.7 467.3 501.6C468.7 503.5 470 505.4 471.3 507.3C472.7 509.2 474 511.1 475.2 513.1C476.5 515.1 477.7 517 478.9 519C480.1 521 481.3 523 482.5 525C483.7 527.1 484.8 529.1 485.9 531.1C487.1 533.2 488.2 535.2 489.3 537.3C490.4 539.3 491.5 541.4 492.6 543.5C493.6 545.5 494.6 547.6 495.7 549.7C496.7 551.8 497.6 553.9 498.6 556C499.7 558.1 500.7 560.2 501.7 562.3C502.7 564.4 503.7 566.5 504.7 568.7C505.6 570.8 506.6 572.9 507.5 575C508.5 577.2 509.4 579.3 510.3 581.4C511.2 583.6 512.2 585.7 513.1 587.8C514.1 589.9 515.1 592.1 516 594.2C516.9 596.3 517.9 598.5 518.8 600.6C519.7 602.7 520.7 604.9 521.6 607C522.6 609.1 523.5 611.3 524.5 613.4C525.5 615.5 526.6 617.5 527.7 619.6C528.8 621.6 529.9 623.6 531.3 625.5C532.6 627.4 534 629.4 535.7 630.8C537.3 632.2 539.3 633.4 541.1 633.9C543 634.5 544.9 634.3 546.9 633.8C548.8 633.4 550.9 632.3 552.8 631.1C554.6 629.9 556.3 628.4 557.8 626.8C559.4 625.2 560.8 623.6 561.9 621.7C563.1 619.8 563.9 617.7 564.6 615.5C565.4 613.4 565.8 611 566.3 608.8C566.9 606.5 567.3 604.2 567.7 601.9C568.2 599.6 568.6 597.3 569 595C569.3 592.7 569.7 590.4 570 588.1C570.3 585.8 570.7 583.5 571 581.2C571.3 578.8 571.6 576.5 571.8 574.2C572.1 571.9 572.3 569.6 572.6 567.3C572.8 564.9 573 562.6 573.2 560.3C573.4 558 573.6 555.6 573.7 553.3C573.9 551 574 548.6 574.1 546.3C574.3 544 574.4 541.7 574.5 539.3C574.6 537 574.7 534.7 574.8 532.3C574.8 530 574.8 527.7 574.9 525.3C574.9 523 574.8 520.7 574.8 518.3C574.7 516 574.7 513.7 574.6 511.3C574.5 509 574.3 506.7 574.2 504.4C574.1 502 573.9 499.7 573.8 497.4C573.6 495 573.4 492.7 573.2 490.4C573 488.1 572.8 485.7 572.6 483.4C572.4 481.1 572.1 478.8 571.9 476.5C571.6 474.1 571.3 471.8 571 469.5C570.7 467.2 570.4 464.9 570.1 462.6C569.7 460.3 569.4 458 569 455.7C568.6 453.4 568.2 451.1 567.8 448.8C567.4 446.5 566.9 444.2 566.4 441.9C566 439.6 565.5 437.3 564.9 435.1C564.4 432.8 563.9 430.5 563.3 428.3C562.7 426 562.1 423.7 561.5 421.5C560.9 419.2 560.3 417 559.7 414.7C559 412.5 558.4 410.3 557.7 408C557 405.8 556.3 403.6 555.6 401.4C554.9 399.1 554.1 396.9 553.4 394.7C552.6 392.5 551.8 390.3 551.1 388.1C550.3 385.9 549.4 383.8 548.6 381.6C547.8 379.4 546.9 377.3 546 375.1C545.2 372.9 544.2 370.8 543.3 368.7C542.5 366.5 541.6 364.4 540.7 362.2C539.8 360 539 357.9 538.1 355.7C537.2 353.6 536.4 351.4 535.5 349.2C534.6 347.1 533.7 344.9 532.8 342.8C531.9 340.7 530.9 338.5 530 336.4C529.1 334.3 528.2 332.1 527.3 330C526.4 327.8 525.5 325.7 524.7 323.5C523.9 321.3 523.1 319.1 522.4 316.9C521.6 314.7 520.9 312.5 520.2 310.3C519.5 308 519 305.8 518.4 303.5C517.9 301.2 517.3 299 516.9 296.7C516.5 294.4 516.1 292.1 515.8 289.8C515.5 287.5 515.2 285.1 515 282.8C514.7 280.5 514.6 278.2 514.4 275.9C514.3 273.5 514.2 271.2 514.2 268.9C514.2 266.5 514.2 264.2 514.3 261.9C514.3 259.5 514.4 257.2 514.5 254.9C514.6 252.5 514.8 250.2 514.9 247.9C515 245.6 515.1 243.2 515.3 240.9C515.4 238.6 515.4 236.2 515.5 233.9C515.6 231.6 515.7 229.2 515.7 226.9C515.8 224.6 515.8 222.2 515.9 219.9C515.9 217.6 515.9 215.2 515.9 212.9C515.9 210.6 515.8 208.2 515.8 205.9C515.7 203.6 515.7 201.2 515.6 198.9C515.5 196.6 515.4 194.3 515.2 191.9C515 189.6 514.9 187.3 514.6 185C514.4 182.6 514.1 180.3 513.8 178C513.5 175.7 513.2 173.4 512.8 171.1C512.4 168.8 512 166.5 511.5 164.2C511.1 161.9 510.6 159.6 510 157.4C509.5 155.1 508.9 152.8 508.3 150.6C507.7 148.3 507.1 146.1 506.5 143.8C505.8 141.6 505.1 139.4 504.3 137.2C503.6 135 502.9 132.8 502 130.6C501.2 128.4 500.3 126.3 499.3 124.2C498.4 122 497.4 119.9 496.4 117.8C495.4 115.7 494.2 113.7 493.1 111.6C492 109.6 491 107.5 489.8 105.5C488.6 103.5 487.3 101.6 486 99.7C484.6 97.8 483.3 95.9 481.7 94.2C480.2 92.4 478.5 90.8 476.8 89.2C475.1 87.7 473.3 86.2 471.5 84.7C469.6 83.3 467.7 82 465.7 80.7C463.8 79.5 461.8 78.2 459.7 77.2C457.7 76.1 455.5 75.3 453.4 74.2C451.4 73.2 449.2 72.3 447.3 71.1C445.4 69.9 443.7 68.6 442 67C440.4 65.4 439 63.6 437.6 61.7C436.2 59.9 435 57.8 433.7 55.9C432.4 54 431 52.1 429.7 50.2C428.3 48.3 427 46.4 425.7 44.5C424.3 42.6 423 40.7 421.5 38.9C420 37.1 418.5 35.4 416.8 33.7C415.2 32.1 413.4 30.6 411.7 29.1C409.9 27.6 407.9 26.3 406.1 24.9C404.3 23.4 402.7 21.8 400.9 20.4C399.1 19 397.2 17.6 395.3 16.5C393.4 15.3 391.5 14.4 389.3 13.7C387.2 12.9 384.9 12.4 382.6 11.9C380.4 11.3 378.1 10.9 375.8 10.4C373.6 9.9 371.3 9.3 369 8.9C366.7 8.4 364.4 8.1 362.1 7.8C359.8 7.6 357.2 7.5 355.1 7.4C353.1 7.3 351.6 7.3 349.8 7.3C348 7.4 346.2 7.5 344.4 7.7Z" stroke="#C9A24C" stroke-width="2.5" stroke-linejoin="round"/>
        </g>
        <g class="leaders" stroke="#C9A24C" stroke-width="1.2" fill="none">
          <path class="leader" d="M82 76 L-70 76"/>
          <path class="leader" d="M265 370 L670 370"/>
          <path class="leader" d="M137 407 L-70 407"/>
          <path class="leader" d="M529 566 L670 566"/>
        </g>
        <g class="dots" fill="#C9A24C">
          <circle class="dot" cx="82" cy="76" r="5"/>
          <circle class="dot" cx="265" cy="370" r="5"/>
          <circle class="dot" cx="137" cy="407" r="5"/>
          <circle class="dot" cx="529" cy="566" r="5"/>
        </g>
      </svg>